<svg xmlns="http://www.w3.org/2000/svg" xmlns:xlink="http://www.w3.org/1999/xlink" width="1446.605" height="1453.665" viewBox="0 0 1446.605 1453.665">
  <defs>
    <filter id="Subtraction_93" x="562.915" y="569.068" width="325.026" height="325.026" filterUnits="userSpaceOnUse">
      <feOffset dy="3" input="SourceAlpha"/>
      <feGaussianBlur stdDeviation="3" result="blur"/>
      <feFlood flood-opacity="0.161"/>
      <feComposite operator="in" in2="blur"/>
      <feComposite in="SourceGraphic"/>
    </filter>
  </defs>
  <g id="Group_573" data-name="Group 573" transform="translate(-240.988 -214.604)">
    <g id="Group_560" data-name="Group 560" transform="translate(100.92 78.066)">
      <g id="Group_559" data-name="Group 559" transform="translate(0 0)">
        <g id="Group_553" data-name="Group 553" transform="translate(1098.081 -352.055) rotate(45)">
          <path id="Subtraction_59" data-name="Subtraction 59" d="M217.872,580.16c-2.562,0-4.342-.174-4.536-.194L71.7,547.13c-.2-.027-20.215-2.878-31.019-13.962-10.823-11.084-12.747-30.71-12.765-30.907L.483,363.8c-.021-.09-2.048-9.086,2.364-16.336s15.394-12.982,15.5-13.039L512.87,0c.1.166,11.451,19.223,26.605,34.378S574,61.221,574.2,61.338L245.236,565.1c-.044.086-4.5,8.715-12.369,12.379C228.109,579.695,222.086,580.16,217.872,580.16Z" transform="translate(285.732 1640.566) rotate(-45)" fill="#1ac1e0"/>
          <path id="Subtraction_64" data-name="Subtraction 64" d="M296.956,329.585l-.016-.016.007-.007c-.412-.278-10.371-7.276-31.839-13.29A268.832,268.832,0,0,0,107.4,309.212L3.518,89.145C3.464,89.087-2.133,82.954.9,72.118,3.952,61.208,15.035,57.9,15.147,57.872L155.285,2.278A24.237,24.237,0,0,1,165.705,0a24.748,24.748,0,0,1,9.367,1.841c10.662,4.337,11.9,15.845,11.912,15.961l21.8,125.882c.051.15,5.243,15.191,16.235,16.235.427.041.868.062,1.31.062,10.647,0,22.467-11.965,22.585-12.086L304.9,91.9a59.166,59.166,0,0,1,15.89-12.744c9.171-4.771,21.108-6.558,21.227-6.575L581.058,21.4a36.962,36.962,0,0,1,6.415-.623c3.245,0,7.27.613,8.014,3.535,1.387,5.5-6.033,12.783-6.108,12.856Z" transform="translate(421.195 1538.255) rotate(-135)" fill="#e33c3c"/>
          <path id="Subtraction_65" data-name="Subtraction 65" d="M296.958,0l-.016.016.007.007C296.536.3,286.577,7.3,265.11,13.313a266.485,266.485,0,0,1-90.29,15.637A268.192,268.192,0,0,1,107.4,20.374L3.519,240.442c-.055.058-5.651,6.191-2.618,17.027,3.051,10.911,14.135,14.214,14.246,14.246l140.139,55.594a24.237,24.237,0,0,0,10.42,2.277,24.748,24.748,0,0,0,9.367-1.841c10.662-4.337,11.9-15.845,11.913-15.961L208.78,185.9c.051-.15,5.243-15.191,16.235-16.235.427-.041.868-.062,1.31-.062,10.647,0,22.467,11.965,22.586,12.086l55.99,55.99a59.165,59.165,0,0,0,15.89,12.744c9.171,4.771,21.108,6.558,21.227,6.575l239.041,51.18a36.966,36.966,0,0,0,6.415.623c3.245,0,7.27-.613,8.014-3.535,1.387-5.5-6.033-12.783-6.108-12.856Z" transform="translate(725.781 1305.203) rotate(-45)" fill="#1ac1e0"/>
          <path id="Subtraction_66" data-name="Subtraction 66" d="M217.872,580.161c-2.562,0-4.342-.174-4.536-.194L71.7,547.131c-.2-.027-20.215-2.878-31.019-13.962-10.823-11.084-12.747-30.711-12.765-30.907L.483,363.8c-.021-.09-2.048-9.086,2.364-16.336s15.394-12.982,15.5-13.039L512.87,0c.1.165,11.451,19.223,26.605,34.378S574,61.222,574.2,61.338L245.236,565.1c-.044.086-4.5,8.715-12.369,12.379C228.109,579.7,222.087,580.161,217.872,580.161Z" transform="translate(1101.211 410.236) rotate(135)" fill="#e33c3c"/>
          <path id="Subtraction_67" data-name="Subtraction 67" d="M296.957,329.585l-.016-.016.007-.007c-.412-.278-10.371-7.276-31.839-13.29A268.831,268.831,0,0,0,107.4,309.212L3.518,89.145C3.464,89.087-2.133,82.954.9,72.119,3.952,61.208,15.035,57.9,15.147,57.872L155.286,2.277A24.235,24.235,0,0,1,165.706,0a24.748,24.748,0,0,1,9.367,1.841c10.662,4.337,11.9,15.845,11.912,15.961l21.8,125.882c.051.15,5.243,15.191,16.235,16.235.427.041.868.062,1.31.062,10.647,0,22.467-11.965,22.586-12.086L304.9,91.9a59.163,59.163,0,0,1,15.89-12.745c9.171-4.771,21.108-6.558,21.227-6.575L581.06,21.4a36.96,36.96,0,0,1,6.415-.623c3.245,0,7.27.613,8.014,3.535,1.387,5.5-6.033,12.783-6.108,12.856Z" transform="translate(965.752 512.549) rotate(45)" fill="#1ac1e0"/>
          <path id="Subtraction_68" data-name="Subtraction 68" d="M296.958,0l-.016.016.007.007C296.536.3,286.577,7.3,265.11,13.313a266.48,266.48,0,0,1-90.29,15.637A268.189,268.189,0,0,1,107.4,20.374L3.519,240.443c-.055.058-5.651,6.191-2.618,17.026,3.051,10.911,14.135,14.214,14.246,14.246L155.286,327.31a24.236,24.236,0,0,0,10.42,2.277,24.746,24.746,0,0,0,9.367-1.841c10.662-4.337,11.9-15.845,11.913-15.961l21.8-125.883c.051-.15,5.243-15.191,16.235-16.235.427-.041.868-.062,1.31-.062,10.647,0,22.467,11.965,22.585,12.086L304.9,237.682a59.165,59.165,0,0,0,15.89,12.745c9.171,4.771,21.108,6.558,21.227,6.575L581.06,308.182a36.953,36.953,0,0,0,6.415.623c3.245,0,7.27-.613,8.014-3.535,1.387-5.5-6.033-12.783-6.108-12.856Z" transform="translate(661.164 745.6) rotate(135)" fill="#e33c3c"/>
        </g>
      </g>
    </g>
    <g id="Group_562" data-name="Group 562" transform="translate(789.92 766.648)">
      <g id="Group_557" data-name="Group 557" transform="translate(0 0)">
        <g id="Group_555" data-name="Group 555" transform="matrix(0.208, -0.978, 0.978, 0.208, 0, 291.839)">
          <path id="Path_146" data-name="Path 146" d="M17.929,0A176.2,176.2,0,0,0,1.843,48.047C-3.359,76.256,4.1,106.49,4.1,106.49s7.66,18.963,50.659,37.871,72.1,19.176,72.1,19.176-.338-22.4-20.5-51.18S58.589,54.791,42.882,36.226A224.853,224.853,0,0,1,17.929,0Z" transform="translate(0 77.479)" fill="#1ac1e0"/>
          <path id="Path_147" data-name="Path 147" d="M0,0S9.11,20.766,32.2,40.779s39,24.243,39,24.243S83.31,66.737,95.2,56.93s12.6-21.056,12.6-21.056A236.161,236.161,0,0,1,41.2,21.3C6.49,8.058,0,0,0,0Z" transform="translate(18.458 218.488)" fill="#1ac1e0"/>
          <path id="Path_148" data-name="Path 148" d="M0,37.952S20.5,40.605,30.932,41,57,39.655,57,39.655L57.567,0H27.679S26.615,11.682,20.23,21.078,0,37.952,0,37.952Z" transform="translate(112.118 255.013)" fill="#1ac1e0"/>
          <path id="Path_149" data-name="Path 149" d="M0,7.518v39.03a124.5,124.5,0,0,0,25.85-7.441A108.654,108.654,0,0,0,47.928,25.714s-5.333-5.882-9.857-12.15A59.49,59.49,0,0,1,31.035,0S25.114,2.035,15.77,4.166,0,7.518,0,7.518Z" transform="translate(184.087 245.365)" fill="#1ac1e0"/>
          <path id="Path_150" data-name="Path 150" d="M0,37.52A48.12,48.12,0,0,0,6.509,49.314a29.2,29.2,0,0,0,10.728,8.363,142.94,142.94,0,0,0,22.545-24.1C48.04,22.149,57.414,9.6,59.212,3.613A19.371,19.371,0,0,0,59.468,0S39.116,15.928,25.807,24.041A230.5,230.5,0,0,1,0,37.52Z" transform="translate(227.597 203.26)" fill="#1ac1e0"/>
          <path id="Path_151" data-name="Path 151" d="M0,60.967S5.619,74.139,24.163,98.115C45.8,121.539,75.8,155.971,90.385,178.668c11.659,18.131,16.257,31.944,20.6,45.394a82.386,82.386,0,0,1,2.177,14.691L142,237.909s-.249-27.122-3.622-86.491c-1.213-21.551-4.9-54-12.57-78.618A336.09,336.09,0,0,0,93.177,0S63.926,6.022,40.684,21.337C17.424,36.652,0,60.967,0,60.967Z" transform="translate(27.492 2.6)" fill="#1ac1e0"/>
          <path id="Path_152" data-name="Path 152" d="M0,.234S17.243,27.085,29.963,65.412c7.984,26.263,13.522,59.566,15.2,83.682,2.421,59.085,1.637,89.725,1.637,89.725l29.11-6.537s-1.469-19.675,7.81-51.478,23.7-52.363,29.315-75.735c11.736-48.795,0-65.248,0-65.248s-23.485-22.1-51.742-32S0,.234,0,.234Z" transform="translate(136.451 0)" fill="#1ac1e0"/>
          <path id="Path_153" data-name="Path 153" d="M0,164.129a127.2,127.2,0,0,1,4.25-30.8c2.091-7.816,13.335-41.427,27.61-72.5C44.45,30.207,42.645,0,42.645,0s17.6,23.945,23.8,52.306c2.4,11,5.189,23.794,5.089,38.817-.016,12.833-4.025,25.831-4.025,25.831a365.006,365.006,0,0,1-29.259,24.488C21.395,154.115,0,164.129,0,164.129Z" transform="translate(226.827 62.051)" fill="#1ac1e0"/>
        </g>
      </g>
      <g transform="matrix(1, 0, 0, 1, -548.93, -552.04)" filter="url(#Subtraction_93)">
        <path id="Subtraction_93-2" data-name="Subtraction 93" d="M153.519,307.026A153.51,153.51,0,0,1,44.965,44.965a153.515,153.515,0,0,1,217.1,217.1A152.5,152.5,0,0,1,153.519,307.026Zm.061-294.071A140.509,140.509,0,0,0,13.064,153.471c0,77.474,63.035,140.5,140.516,140.5s140.5-63.03,140.5-140.5S231.054,12.955,153.58,12.955Z" transform="translate(571.91 575.07)" fill="#22272b" opacity="0"/>
      </g>
    </g>
  </g>
</svg>
