<svg xmlns="http://www.w3.org/2000/svg" xmlns:xlink="http://www.w3.org/1999/xlink" width="200.548" height="160.41" viewBox="0 0 200.548 160.41">
  <defs>
    <linearGradient id="linear-gradient" x1="0.5" x2="0.5" y2="1" gradientUnits="objectBoundingBox">
      <stop offset="0" stop-color="#f4c9b7"/>
      <stop offset="1" stop-color="#9a6845"/>
    </linearGradient>
    <filter id="Union_67" x="0" y="0" width="200.548" height="160.41" filterUnits="userSpaceOnUse">
      <feOffset dy="3" input="SourceAlpha"/>
      <feGaussianBlur stdDeviation="3" result="blur"/>
      <feFlood flood-opacity="0.161"/>
      <feComposite operator="in" in2="blur"/>
      <feComposite in="SourceGraphic"/>
    </filter>
  </defs>
  <g transform="matrix(1, 0, 0, 1, 0, 0)" filter="url(#Union_67)">
    <path id="Union_67-2" data-name="Union 67" d="M-2570.252-263.3a18.317,18.317,0,0,1-11.475-7.458,73.858,73.858,0,0,1-13.537,2.454v-4.025a62.226,62.226,0,0,0,16.675-2.851c-.615-1.446-2.528-6.956-.093-14.985a29.373,29.373,0,0,1,9.657-14.322,41.693,41.693,0,0,1-.473,17.709,20.138,20.138,0,0,1-7.528,11.1,63.915,63.915,0,0,0,15.247-7.351c-.842-1.177-3.984-6.2-3.267-14.7a29.308,29.308,0,0,1,6.456-16.008,41.719,41.719,0,0,1,3.235,17.419,20.142,20.142,0,0,1-4.875,12.229,57.789,57.789,0,0,0,6.9-5.746,60.694,60.694,0,0,0,7.6-7.156,21.564,21.564,0,0,1-6.808-11.236,27.109,27.109,0,0,1,.525-15.986,38.8,38.8,0,0,1,8.368,14.157,18.991,18.991,0,0,1,.3,10.13,58.078,58.078,0,0,0,6.584-11.153c-1.535-.72-5.511-3.044-8.5-8.837a24.516,24.516,0,0,1-2.553-14.232,35.172,35.172,0,0,1,10.071,10.951,17.11,17.11,0,0,1,2.159,9.353,74.455,74.455,0,0,0,3.833-13.177,18.041,18.041,0,0,1-9.175-6.317,22.729,22.729,0,0,1-5.065-12.4,32.65,32.65,0,0,1,11.24,7.989,16,16,0,0,1,3.616,7.221q.293-1.9.518-3.9a55.437,55.437,0,0,0,.371-9.309,17.065,17.065,0,0,1-10.243-3.378,21.709,21.709,0,0,1-7.907-10.028A31.188,31.188,0,0,1-2536-352.77a15.16,15.16,0,0,1,5.577,6.406,58.793,58.793,0,0,0-2.558-12.492c-1.361.373-5.43,1.128-10.869-1.148a21.769,21.769,0,0,1-9.828-8.172,31.216,31.216,0,0,1,13.037,1.713,15.19,15.19,0,0,1,6.82,5.149,69.766,69.766,0,0,0-5.118-10.921,16.442,16.442,0,0,1-9.661,1.5,20.582,20.582,0,0,1-11.036-4.862,29.41,29.41,0,0,1,12.258-1.819,14.513,14.513,0,0,1,6.7,2.312c-1.549-2.435-3.124-4.611-4.613-6.5a17.073,17.073,0,0,1-9.826.588,21.15,21.15,0,0,1-10.866-5.965,30.253,30.253,0,0,1,12.719-.769,15.517,15.517,0,0,1,3.711,1.162c-1.584-1.7-2.8-2.848-3.392-3.382a18.6,18.6,0,0,1-10.458-3.995A23.25,23.25,0,0,1-2571.489-405a33.386,33.386,0,0,1,13.1,5.144,15.91,15.91,0,0,1,6.282,8.674,40.886,40.886,0,0,1,4.433,3.749,19.362,19.362,0,0,1-1.631-4.863,20.95,20.95,0,0,1,1.27-12.287,29.941,29.941,0,0,1,5.682,11.355,14.181,14.181,0,0,1-1.305,10.092,62.537,62.537,0,0,1,5.807,8.143,20.5,20.5,0,0,1-1.064-6.619A22.806,22.806,0,0,1-2535-394.464a32.515,32.515,0,0,1,3.7,13.291,15.037,15.037,0,0,1-3.9,10.937s-.042-.043-.118-.129a68.487,68.487,0,0,1,3.249,7.717,20.91,20.91,0,0,1,.529-5.806,22.853,22.853,0,0,1,6.719-11.645,32.473,32.473,0,0,1,.6,13.779,15.335,15.335,0,0,1-6.04,9.633,78.083,78.083,0,0,1,1.938,10.559,22.407,22.407,0,0,1,2.171-7.224,25.143,25.143,0,0,1,10.07-10.8,35.645,35.645,0,0,1-2.776,14.877,16.759,16.759,0,0,1-9.006,8.874q.136,2.894.084,5.969-.028,1.441-.163,2.931a23.292,23.292,0,0,1,3.019-5.026,25.216,25.216,0,0,1,12.1-8.478,35.669,35.669,0,0,1-5.822,13.977,16.907,16.907,0,0,1-10.5,6.791,71.326,71.326,0,0,1-3.111,9.89,22.886,22.886,0,0,1,4.721-4.929,25.272,25.272,0,0,1,13.806-5.311,35.773,35.773,0,0,1-9.046,12.16,16.73,16.73,0,0,1-12.1,4.034,82.9,82.9,0,0,1-4.543,8.123,23.022,23.022,0,0,1,5.564-3.767,25.3,25.3,0,0,1,14.612-2.336,35.866,35.866,0,0,1-11.387,10.021,16.872,16.872,0,0,1-12.562,1.48,60.227,60.227,0,0,1-5.324,6.08,24.59,24.59,0,0,1,7.877-2.774,27.52,27.52,0,0,1,15.985,1.918,39.163,39.163,0,0,1-14.926,7.081,18.377,18.377,0,0,1-13.549-2.18,70.734,70.734,0,0,1-6.25,4.391,25.545,25.545,0,0,1,6.491-.6,27.481,27.481,0,0,1,15.235,5.185,39.231,39.231,0,0,1-16.08,3.836,18.577,18.577,0,0,1-12.479-4.628,83.719,83.719,0,0,1-9.449,3.935,24.736,24.736,0,0,1,8.112.676,27.428,27.428,0,0,1,13.819,8.225,40.518,40.518,0,0,1-9.572,1.133A32.744,32.744,0,0,1-2570.252-263.3Zm-84.208-.425a27.428,27.428,0,0,1,13.819-8.225,24.737,24.737,0,0,1,8.112-.676,83.775,83.775,0,0,1-9.449-3.935,18.576,18.576,0,0,1-12.479,4.628,39.222,39.222,0,0,1-16.079-3.836,27.476,27.476,0,0,1,15.234-5.185,25.545,25.545,0,0,1,6.491.6,70.782,70.782,0,0,1-6.251-4.392,18.374,18.374,0,0,1-13.55,2.181,39.16,39.16,0,0,1-14.927-7.081,27.52,27.52,0,0,1,15.985-1.918,24.591,24.591,0,0,1,7.879,2.775A60.237,60.237,0,0,1-2665-294.87a16.871,16.871,0,0,1-12.562-1.48,35.875,35.875,0,0,1-11.388-10.021,25.3,25.3,0,0,1,14.614,2.336,23.028,23.028,0,0,1,5.564,3.767,82.806,82.806,0,0,1-4.543-8.123,16.73,16.73,0,0,1-12.1-4.034,35.777,35.777,0,0,1-9.046-12.16,25.276,25.276,0,0,1,13.806,5.311,22.9,22.9,0,0,1,4.721,4.929,71.329,71.329,0,0,1-3.111-9.89,16.907,16.907,0,0,1-10.5-6.791A35.688,35.688,0,0,1-2695.366-345a25.217,25.217,0,0,1,12.105,8.478,23.314,23.314,0,0,1,3.019,5.026c-.09-.992-.145-1.971-.163-2.93q-.055-3.077.085-5.969a16.759,16.759,0,0,1-9.006-8.874,35.64,35.64,0,0,1-2.776-14.877,25.144,25.144,0,0,1,10.07,10.8,22.421,22.421,0,0,1,2.172,7.224,77.969,77.969,0,0,1,1.938-10.559,15.334,15.334,0,0,1-6.041-9.633,32.476,32.476,0,0,1,.6-13.779,22.855,22.855,0,0,1,6.719,11.645,20.928,20.928,0,0,1,.529,5.806,68.4,68.4,0,0,1,3.249-7.717c-.076.086-.118.129-.118.129a15.036,15.036,0,0,1-3.9-10.937,32.485,32.485,0,0,1,3.7-13.291,22.8,22.8,0,0,1,3.916,12.852,20.492,20.492,0,0,1-1.064,6.619,62.567,62.567,0,0,1,5.807-8.144,14.176,14.176,0,0,1-1.305-10.091,29.954,29.954,0,0,1,5.681-11.355,20.942,20.942,0,0,1,1.27,12.287,19.389,19.389,0,0,1-1.63,4.862,40.87,40.87,0,0,1,4.431-3.748,15.912,15.912,0,0,1,6.283-8.675A33.384,33.384,0,0,1-2636.7-405a23.242,23.242,0,0,1-8.086,11.029,18.6,18.6,0,0,1-10.458,3.995c-.587.534-1.807,1.681-3.391,3.382a15.514,15.514,0,0,1,3.709-1.161,30.25,30.25,0,0,1,12.719.769,21.142,21.142,0,0,1-10.865,5.965,17.074,17.074,0,0,1-9.826-.588c-1.489,1.893-3.063,4.069-4.613,6.5a14.514,14.514,0,0,1,6.7-2.311,29.408,29.408,0,0,1,12.258,1.819,20.582,20.582,0,0,1-11.034,4.862,16.446,16.446,0,0,1-9.661-1.5,69.8,69.8,0,0,0-5.117,10.92,15.19,15.19,0,0,1,6.819-5.148,31.217,31.217,0,0,1,13.038-1.713,21.762,21.762,0,0,1-9.828,8.172c-5.438,2.275-9.507,1.521-10.868,1.148a58.773,58.773,0,0,0-2.558,12.49,15.16,15.16,0,0,1,5.576-6.4,31.183,31.183,0,0,1,12.4-4.374,21.713,21.713,0,0,1-7.907,10.028,17.066,17.066,0,0,1-10.243,3.378,55.386,55.386,0,0,0,.372,9.309q.223,2,.517,3.9a16,16,0,0,1,3.616-7.216,32.647,32.647,0,0,1,11.24-7.989,22.73,22.73,0,0,1-5.066,12.4,18.042,18.042,0,0,1-9.174,6.317,74.381,74.381,0,0,0,3.832,13.176,17.105,17.105,0,0,1,2.159-9.351,35.172,35.172,0,0,1,10.071-10.951,24.515,24.515,0,0,1-2.553,14.232c-2.991,5.792-6.966,8.117-8.5,8.837a58.085,58.085,0,0,0,6.582,11.149,18.988,18.988,0,0,1,.305-10.127,38.813,38.813,0,0,1,8.369-14.157,27.121,27.121,0,0,1,.525,15.987,21.57,21.57,0,0,1-6.808,11.234,60.74,60.74,0,0,0,7.6,7.157,57.835,57.835,0,0,0,6.9,5.746,20.147,20.147,0,0,1-4.876-12.229,41.739,41.739,0,0,1,3.236-17.419,29.308,29.308,0,0,1,6.456,16.008c.718,8.506-2.425,13.526-3.267,14.7a63.916,63.916,0,0,0,15.247,7.351,20.139,20.139,0,0,1-7.528-11.1,41.7,41.7,0,0,1-.473-17.709,29.375,29.375,0,0,1,9.658,14.322c2.435,8.03.522,13.539-.093,14.985a62.226,62.226,0,0,0,16.675,2.851v4.025a73.849,73.849,0,0,1-13.536-2.454,18.316,18.316,0,0,1-11.475,7.457,32.743,32.743,0,0,1-6.96.708A40.505,40.505,0,0,1-2654.461-263.722Zm51.2-32.418-30.871-18.051-12.578-49.251,35.579-16.883-1.978-6.776,50.224,21.539-11.976,51.37-28.4,18.051h0Zm-3.258-12.815,2.881,1.686,21.451-13.634,9.045-38.8-3.158-1.355Zm-11.183-13.393-1.609,2.776,10.473,6.018,1.609-2.777Zm8.12-48.505-26.873,12.753,9.5,37.2,2.561,1.5,28.923-49.872-15.608-6.692Zm-4.5,42.263-1.609,2.773,10.473,6.017,1.608-2.773Zm2.013-3.47,10.469,6.019,1.609-2.776-10.469-6.018Zm5.228-9.018-1.609,2.776,10.474,6.018,1.608-2.773Zm3.622-6.242-1.609,2.773,10.469,6.017,1.609-2.773Zm2.01-3.468,10.472,6.017,1.609-2.773-10.471-6.02Zm3.621-6.245,10.469,6.018,1.613-2.773-10.473-6.018Zm5.231-9.017-1.609,2.773,10.469,6.02,1.609-2.777Z" transform="translate(2704.37 411)" fill="url(#linear-gradient)"/>
  </g>
</svg>
